<svg id="_1A" data-name="1A" xmlns="http://www.w3.org/2000/svg" xmlns:xlink="http://www.w3.org/1999/xlink" width="172.681" height="200.298" viewBox="0 0 172.681 200.298">
  <defs>
    <clipPath id="clip-path">
      <rect id="Rectangle_8" data-name="Rectangle 8" width="172.681" height="200.298" fill="none"/>
    </clipPath>
  </defs>
  <g id="Group_15" data-name="Group 15" clip-path="url(#clip-path)">
    <path id="Path_24" data-name="Path 24" d="M93.447,163.4H7.66A7.659,7.659,0,0,1,0,155.744V78.638a7.66,7.66,0,0,1,7.66-7.66H93.447a7.661,7.661,0,0,1,7.66,7.66v77.106a7.66,7.66,0,0,1-7.66,7.66" fill="#006241"/>
    <rect id="Rectangle_7" data-name="Rectangle 7" width="101.106" height="17.617" transform="translate(0 85.532)" fill="#fff"/>
    <path id="Path_25" data-name="Path 25" d="M27.319,128.936H15.574a3.829,3.829,0,0,1-3.829-3.83v-6.383a3.829,3.829,0,0,1,3.829-3.83H27.319a3.83,3.83,0,0,1,3.83,3.83v6.383a3.83,3.83,0,0,1-3.83,3.83" fill="#d2a04a"/>
    <path id="Path_26" data-name="Path 26" d="M159.936,200.3H73.425a12.745,12.745,0,0,1-12.744-12.745V12.745A12.745,12.745,0,0,1,73.425,0h86.511a12.745,12.745,0,0,1,12.745,12.745V187.553A12.745,12.745,0,0,1,159.936,200.3" fill="#1a3c34"/>
    <path id="Path_27" data-name="Path 27" d="M162.124,17.1V183.2a8.42,8.42,0,0,1-8.42,8.42H79.664a8.422,8.422,0,0,1-8.43-8.42V17.1a8.422,8.422,0,0,1,8.43-8.42h19.66v5.87h34.21V8.685H153.7a8.42,8.42,0,0,1,8.42,8.42" fill="#fff"/>
    <path id="Path_28" data-name="Path 28" d="M108.83,90.511H90.958a4.4,4.4,0,0,1-4.4-4.4V68.234a4.4,4.4,0,0,1,4.4-4.4H108.83a4.4,4.4,0,0,1,4.4,4.4V86.107a4.4,4.4,0,0,1-4.4,4.4" fill="#00754a"/>
    <path id="Path_29" data-name="Path 29" d="M102.511,83.223H97.277a3.436,3.436,0,0,1-3.436-3.436V74.553a3.436,3.436,0,0,1,3.436-3.436h5.234a3.436,3.436,0,0,1,3.436,3.436v5.234a3.436,3.436,0,0,1-3.436,3.436" fill="#fff"/>
    <path id="Path_30" data-name="Path 30" d="M108.83,125.107H90.958a4.4,4.4,0,0,1-4.4-4.4V102.83a4.4,4.4,0,0,1,4.4-4.4H108.83a4.4,4.4,0,0,1,4.4,4.4V120.7a4.4,4.4,0,0,1-4.4,4.4" fill="#00754a"/>
    <path id="Path_31" data-name="Path 31" d="M102.511,117.819H97.277a3.436,3.436,0,0,1-3.436-3.436v-5.234a3.436,3.436,0,0,1,3.436-3.436h5.234a3.436,3.436,0,0,1,3.436,3.436v5.234a3.436,3.436,0,0,1-3.436,3.436" fill="#fff"/>
    <path id="Path_32" data-name="Path 32" d="M143.809,90.511H125.937a4.4,4.4,0,0,1-4.4-4.4V68.234a4.4,4.4,0,0,1,4.4-4.4h17.872a4.4,4.4,0,0,1,4.4,4.4V86.107a4.4,4.4,0,0,1-4.4,4.4" fill="#00754a"/>
    <path id="Path_33" data-name="Path 33" d="M131.125,109.915h-7.7a1.9,1.9,0,0,1-1.9-1.9v-7.7a1.9,1.9,0,0,1,1.9-1.9h7.7a1.9,1.9,0,0,1,1.9,1.9v7.7a1.9,1.9,0,0,1-1.9,1.9" fill="#00754a"/>
    <path id="Path_34" data-name="Path 34" d="M145.55,124.213h-7.7a1.9,1.9,0,0,1-1.9-1.9v-7.7a1.9,1.9,0,0,1,1.9-1.9h7.7a1.9,1.9,0,0,1,1.9,1.9v7.7a1.9,1.9,0,0,1-1.9,1.9" fill="#00754a"/>
    <path id="Path_35" data-name="Path 35" d="M129.419,124.213h-6.328a1.559,1.559,0,0,1-1.559-1.559v-6.328a1.559,1.559,0,0,1,1.559-1.56h6.328a1.559,1.559,0,0,1,1.559,1.56v6.328a1.559,1.559,0,0,1-1.559,1.559" fill="#00754a"/>
    <path id="Path_36" data-name="Path 36" d="M145.824,108.255h-6.585a1.622,1.622,0,0,1-1.622-1.623v-6.584a1.623,1.623,0,0,1,1.622-1.623h6.585a1.623,1.623,0,0,1,1.623,1.623v6.584a1.623,1.623,0,0,1-1.623,1.623" fill="#00754a"/>
    <path id="Path_37" data-name="Path 37" d="M137.489,83.223h-5.234a3.436,3.436,0,0,1-3.436-3.436V74.553a3.436,3.436,0,0,1,3.436-3.436h5.234a3.436,3.436,0,0,1,3.436,3.436v5.234a3.436,3.436,0,0,1-3.436,3.436" fill="#fff"/>
  </g>
</svg>
