<svg id="_2B" data-name="2B" xmlns="http://www.w3.org/2000/svg" xmlns:xlink="http://www.w3.org/1999/xlink" width="182.659" height="200.298" viewBox="0 0 182.659 200.298">
  <defs>
    <clipPath id="clip-path">
      <rect id="Rectangle_24" data-name="Rectangle 24" width="182.659" height="200.298" fill="none"/>
    </clipPath>
  </defs>
  <g id="Group_44" data-name="Group 44" clip-path="url(#clip-path)">
    <path id="Path_174" data-name="Path 174" d="M169.914,200.3H83.4a12.745,12.745,0,0,1-12.744-12.745V12.745A12.745,12.745,0,0,1,83.4,0h86.511a12.745,12.745,0,0,1,12.745,12.745V187.553A12.745,12.745,0,0,1,169.914,200.3" fill="#1a3c34"/>
    <path id="Path_175" data-name="Path 175" d="M172.1,17.1V183.2a8.42,8.42,0,0,1-8.42,8.42H89.642a8.422,8.422,0,0,1-8.43-8.42V17.1a8.422,8.422,0,0,1,8.43-8.42H109.3v5.87h34.21V8.685h20.17a8.42,8.42,0,0,1,8.42,8.42" fill="#fff"/>
    <path id="Path_176" data-name="Path 176" d="M112.489,83.223h-5.234a3.436,3.436,0,0,1-3.436-3.436V74.553a3.436,3.436,0,0,1,3.436-3.436h5.234a3.436,3.436,0,0,1,3.436,3.436v5.234a3.436,3.436,0,0,1-3.436,3.436" fill="#fff"/>
    <path id="Path_177" data-name="Path 177" d="M112.489,117.819h-5.234a3.436,3.436,0,0,1-3.436-3.436v-5.234a3.436,3.436,0,0,1,3.436-3.436h5.234a3.436,3.436,0,0,1,3.436,3.436v5.234a3.436,3.436,0,0,1-3.436,3.436" fill="#fff"/>
    <path id="Path_178" data-name="Path 178" d="M154.757,50.161l-.494.361q-8.3,6.033-16.61,12.06a.337.337,0,0,0-.141.458q3.228,9.9,6.442,19.811c.032.1.057.2.105.373-.26-.188-.464-.333-.667-.481q-8.267-6.006-16.531-12.018a.3.3,0,0,0-.43.014Q118,76.873,109.564,83l-.309.221c.041-.155.063-.256.094-.354q3.219-9.907,6.443-19.812a.354.354,0,0,0-.152-.481q-8.428-6.111-16.848-12.235a.817.817,0,0,1-.235-.238h.324q10.371,0,20.743.006a.424.424,0,0,0,.491-.348q3.2-9.91,6.429-19.814c.024-.075.053-.148.107-.3.056.152.093.244.123.338q3.221,9.906,6.433,19.814a.373.373,0,0,0,.432.306q10.371-.01,20.743-.006h.351l.024.062" fill="#d2a04a"/>
    <rect id="Rectangle_23" data-name="Rectangle 23" width="132.055" height="92.339" rx="5.062" transform="translate(1.5 93.18)" fill="#fffffd"/>
    <path id="Path_179" data-name="Path 179" d="M128.493,94.68a3.566,3.566,0,0,1,3.562,3.562v82.215a3.566,3.566,0,0,1-3.562,3.562H6.562A3.566,3.566,0,0,1,3,180.457V98.242A3.566,3.566,0,0,1,6.562,94.68Zm0-3H6.562A6.562,6.562,0,0,0,0,98.242v82.215a6.562,6.562,0,0,0,6.562,6.562H128.493a6.562,6.562,0,0,0,6.562-6.562V98.242a6.562,6.562,0,0,0-6.562-6.562" fill="#9e9e9e"/>
    <path id="Path_180" data-name="Path 180" d="M86.137,187.019H5.241A5.24,5.24,0,0,1,0,181.778V96.92a5.24,5.24,0,0,1,5.241-5.24h80.9Z" fill="#046240"/>
    <path id="Path_181" data-name="Path 181" d="M126.038,115.213a13.2,13.2,0,1,1-13.2-13.2,13.2,13.2,0,0,1,13.2,13.2" fill="#046240"/>
  </g>
</svg>
