<svg id="ic_exclusiveperks" xmlns="http://www.w3.org/2000/svg" xmlns:xlink="http://www.w3.org/1999/xlink" width="211.786" height="331.626" viewBox="0 0 211.786 331.626">
  <defs>
    <clipPath id="clip-path">
      <rect id="Rectangle_21" data-name="Rectangle 21" width="211.786" height="331.626" fill="none"/>
    </clipPath>
    <clipPath id="clip-path-2">
      <path id="Path_164" data-name="Path 164" d="M18.719,35.657,31.57,144.613s23.915,9.192,46.263-2.876c26.866-14.507,23.582-25.62,23.582-25.62L25.983,37.892s-3.337-4.247-5.541-4.247c-.787,0-1.429.541-1.723,2.012" fill="none"/>
    </clipPath>
  </defs>
  <g id="Group_39" data-name="Group 39">
    <g id="Group_38" data-name="Group 38" clip-path="url(#clip-path)">
      <path id="Path_150" data-name="Path 150" d="M108.478,142.543s-1.588-.3-2.37-.416-2.381-.352-2.381-.352c-50.266-7.2-56.161,7.285-56.161,7.285S35.1,303.436,40.333,315.089c4.366,9.733,27.919,13.115,35.561,13.965,7.521,1.6,30.94,5.811,38.15-2.051,8.633-9.412,45.441-159.853,45.441-159.853s-1.031-15.609-51.007-24.607" fill="#fff"/>
      <path id="Path_151" data-name="Path 151" d="M113.608,327.071c-.77,4.763-17.71,5.987-37.836,2.734s-35.818-9.751-35.048-14.515,17.709-5.987,37.836-2.734,35.818,9.752,35.048,14.515" fill="#bbbbbd"/>
      <path id="Path_152" data-name="Path 152" d="M122.884,207.426a32.433,32.433,0,1,1-32.433-32.433,32.433,32.433,0,0,1,32.433,32.433" fill="#006341"/>
      <path id="Path_153" data-name="Path 153" d="M47.565,149.06c31.518,15.039,56.161-7.285,56.161-7.285-50.266-7.2-56.161,7.285-56.161,7.285" fill="#d6d6d6"/>
      <path id="Path_154" data-name="Path 154" d="M54.606,324.692c-1.584-.544-3.061-1.1-4.416-1.671,1.407.611,2.893,1.166,4.416,1.671" fill="#bbbbbd"/>
      <path id="Path_155" data-name="Path 155" d="M102.188,331.426c-1.463.112-3.04.177-4.714.194,1.6,0,3.188-.057,4.714-.194" fill="#bbbbbd"/>
      <path id="Path_156" data-name="Path 156" d="M113.456,327.582c-2.547,2.3-6.645,3.429-11.268,3.844,6.21-.474,10.38-1.785,11.268-3.844" fill="#bbbbbd"/>
      <path id="Path_157" data-name="Path 157" d="M40.708,315.824c.195,2.233,3.738,4.791,9.482,7.2-4.257-1.849-7.79-4.208-9.482-7.2" fill="#bbbbbd"/>
      <path id="Path_158" data-name="Path 158" d="M75.894,329.055a112.148,112.148,0,0,1-21.288-4.363,131.014,131.014,0,0,0,21.167,5.114,131.062,131.062,0,0,0,21.7,1.815,112.151,112.151,0,0,1-21.58-2.566" fill="#bbbbbd"/>
      <path id="Path_159" data-name="Path 159" d="M18.719,35.657,31.57,144.614s23.915,9.191,46.263-2.877c26.866-14.507,23.581-25.62,23.581-25.62L25.983,37.892s-6.146-7.823-7.264-2.235" fill="#d2a04a"/>
    </g>
  </g>
  <g id="Group_41" data-name="Group 41">
    <g id="Group_40" data-name="Group 40" clip-path="url(#clip-path-2)">
      <path id="Path_160" data-name="Path 160" d="M39.4,33.387S34.032,53.5,14.366,63.333l3.575,16.09s22.348-8.939,32.181-36.65Z" fill="#006845"/>
      <path id="Path_161" data-name="Path 161" d="M55.906,54.259S43.018,81.41,18.388,93.725L21.919,111.1s29.49-17.431,46.474-46.036Z" fill="#006845"/>
      <path id="Path_162" data-name="Path 162" d="M73.287,74.933s-14.5,28.3-51.035,47.954l5.176,15.781S65.27,116.647,87.766,82.8Z" fill="#006845"/>
      <path id="Path_163" data-name="Path 163" d="M89.124,96.478s-15.125,28.379-55.572,50l8.193,11.842s38.418-17.415,61.026-53.773Z" fill="#006845"/>
    </g>
  </g>
  <g id="Group_43" data-name="Group 43">
    <g id="Group_42" data-name="Group 42" clip-path="url(#clip-path)">
      <path id="Path_165" data-name="Path 165" d="M29.481,16.911c-.054.107-.107.215-.161.322q-2.725,5.4-5.453,10.807a.2.2,0,0,0,.049.278q4.366,4.32,8.725,8.648c.045.044.086.091.156.167l-.479-.072q-5.955-.918-11.911-1.838c-.126-.02-.171.022-.222.123q-2.765,5.491-5.533,10.981c-.029.056-.058.112-.1.2-.021-.092-.037-.151-.047-.211q-.987-6.063-1.97-12.126c-.022-.137-.068-.19-.21-.212Q6.255,33.05.188,32.111A.471.471,0,0,1,0,32.05l.17-.088q5.438-2.8,10.877-5.6a.249.249,0,0,0,.163-.315q-1-6.06-1.978-12.124c-.007-.045-.012-.091-.024-.184.07.065.115.1.156.144q4.362,4.325,8.721,8.652a.22.22,0,0,0,.309.043q5.435-2.805,10.874-5.6l.184-.095.029.026" fill="#006341"/>
      <path id="Path_166" data-name="Path 166" d="M99.154,88.5a25.771,25.771,0,0,0,4.479,2.945l.038.018a56.439,56.439,0,0,1,7.6,4.532c4.527,3.22,7.494,6.477,8.654,9.484l3.02-.783c-1.314-3.728-4.631-7.5-9.875-11.23a58.946,58.946,0,0,0-8.053-4.8L105,88.665l-.012-.006a23.059,23.059,0,0,1-3.852-2.54c-2.692-2.24-2.967-3.806-2.724-4.726a1.975,1.975,0,0,1,1.012-1.331,6.88,6.88,0,0,1,3.959-.269,17,17,0,0,1,2.726.69c1.4.477,2.882,1.1,4.452,1.755a39.776,39.776,0,0,0,8.293,2.81l.035.005c3.376.537,5.769-.414,7.113-2.827a5.99,5.99,0,0,0-.063-6.244c-.123-.21-.261-.42-.409-.625a14.771,14.771,0,0,0-3.732-3.366l-.159-.108c-3.388-2.328-14.6-10.044-16.765-11.676a15.488,15.488,0,0,1-3.74-3.663,3.239,3.239,0,0,1,.183-4.06,2.919,2.919,0,0,1,3.145-1.072,7.578,7.578,0,0,1,1.118.277,12.533,12.533,0,0,1,2.494,1.158l.957-1.294.9-1.21a15.964,15.964,0,0,0-3.268-1.564,10.7,10.7,0,0,0-1.695-.426,7.546,7.546,0,0,0-2.216-.049,5.772,5.772,0,0,0-3.917,2.316,6.285,6.285,0,0,0-.346,7.548A17.72,17.72,0,0,0,103,62.683c2.152,1.625,12.519,8.763,16.877,11.756l.169.116a11.9,11.9,0,0,1,2.965,2.618,3.006,3.006,0,0,1,.277,3.543c-.48.861-1.32,1.685-3.915,1.272l-.027,0a37.819,37.819,0,0,1-7.59-2.609c-1.549-.648-3.151-1.318-4.648-1.829a20.651,20.651,0,0,0-3.264-.821c-.325-.053-.646-.1-.956-.126a8.586,8.586,0,0,0-4.931.727A5.078,5.078,0,0,0,95.415,80.6c-.476,1.793-.213,4.621,3.739,7.907" fill="#286241"/>
      <path id="Path_167" data-name="Path 167" d="M143.256,119.632l-.251.2q-4.226,3.364-8.451,6.727a.177.177,0,0,0-.064.244q1.927,5.13,3.847,10.264c.02.052.036.106.065.194l-.362-.237q-4.486-2.965-8.97-5.933a.159.159,0,0,0-.226.017q-4.29,3.422-8.582,6.837l-.157.124c.018-.083.027-.136.041-.189q1.461-5.281,2.926-10.564a.187.187,0,0,0-.091-.25q-4.574-3.017-9.142-6.04a.423.423,0,0,1-.129-.119l.17-.008q5.453-.242,10.905-.479a.223.223,0,0,0,.25-.195q1.453-5.284,2.919-10.566c.011-.039.024-.079.049-.158.033.079.055.126.073.174q1.923,5.133,3.843,10.267a.2.2,0,0,0,.234.151q5.452-.246,10.9-.486l.185-.008.014.032" fill="#d2a04a"/>
      <path id="Path_168" data-name="Path 168" d="M164.834,139.237l-.153.031q-2.572.51-5.144,1.019a.087.087,0,0,0-.082.091q-.311,2.643-.626,5.285c0,.027-.009.054-.016.1l-.1-.183q-1.275-2.278-2.548-4.557a.078.078,0,0,0-.1-.043q-2.613.521-5.225,1.038l-.1.019c.026-.032.042-.053.059-.072l3.615-3.906a.091.091,0,0,0,.017-.128q-1.3-2.32-2.6-4.642a.213.213,0,0,1-.029-.08l.075.035q2.406,1.11,4.811,2.221a.107.107,0,0,0,.151-.028q1.8-1.956,3.613-3.908l.056-.057c0,.041,0,.066-.007.092q-.313,2.642-.629,5.284a.1.1,0,0,0,.067.117q2.408,1.108,4.813,2.22l.081.037v.017" fill="#d2a04a"/>
      <path id="Path_169" data-name="Path 169" d="M148.282,112.448l-3.464-.631c2.958-16.231-3.849-39.666-3.918-39.9-.174-.625-4.06-14.812-.38-22.413,1.164-2.406,2.657-3.591,4.436-3.524,3.1.121,5.4,4.327,6.783,7.837.792,2.011,1.578,4.382,2.338,6.675,1,3.019,2.036,6.141,3.1,8.492,1.413,3.137,2.245,3.454,2.305,3.473a2.769,2.769,0,0,0,.815-.827c3.363-4.564,1.921-12.471,1.378-15.448l-.059-.32c-1.528-8.472-5.155-28.648-5.822-33.021-.717-4.7-2.4-15.7,2.966-21.276,1.665-1.729,3.205-1.716,4.205-1.4,3.668,1.156,5.122,8.7,5.481,10.986l-3.479.546c-.665-4.217-2.215-7.915-3.058-8.173a2.113,2.113,0,0,0-.612.484c-4.156,4.319-2.66,14.119-2.022,18.3.661,4.331,4.281,24.469,5.806,32.927l.058.313c.617,3.386,2.258,12.38-2.007,18.169-1.263,1.713-2.676,2.459-4.2,2.216h-.011c-3.447-.557-5.354-5.812-8.179-14.334-.78-2.351-1.516-4.572-2.272-6.493-1.546-3.927-3.113-5.587-3.641-5.608,0,0-.466.161-1.133,1.54-1.251,2.584-1.558,6.8-.888,12.2a60.231,60.231,0,0,0,1.484,7.709c.285.965,7.106,24.44,4,41.5" fill="#d2a04a"/>
      <path id="Path_170" data-name="Path 170" d="M170.31,271.849l-.645.224q-10.84,3.719-21.683,7.432a.376.376,0,0,0-.3.442q.2,11.63.386,23.259c0,.118-.005.236-.01.432-.216-.285-.386-.507-.554-.731q-6.858-9.12-13.71-18.246a.338.338,0,0,0-.464-.126q-11.008,3.786-22.022,7.561c-.113.039-.226.076-.4.135.094-.152.151-.253.217-.347q6.681-9.522,13.368-19.038a.4.4,0,0,0,0-.564q-7-9.285-13.977-18.581a.905.905,0,0,1-.173-.331l.346.106q11.072,3.4,22.141,6.8a.472.472,0,0,0,.638-.21q6.668-9.531,13.356-19.046c.05-.072.1-.14.211-.282.01.181.019.291.021.4q.192,11.63.374,23.26a.417.417,0,0,0,.362.468q11.074,3.387,22.145,6.79l.375.116c0,.024,0,.049.005.073" fill="#d2a04a"/>
      <path id="Path_171" data-name="Path 171" d="M40.708,180.366l-.136.107q-2.295,1.792-4.591,3.585a.1.1,0,0,0-.036.131q1.014,2.776,2.023,5.554c.01.028.018.057.033.105l-.194-.13Q35.4,188.1,33,186.474a.085.085,0,0,0-.122.008l-4.662,3.643c-.024.019-.048.038-.086.066.01-.044.015-.073.024-.1q.814-2.841,1.63-5.682a.1.1,0,0,0-.047-.135q-2.451-1.65-4.9-3.3a.242.242,0,0,1-.069-.065l.092,0q2.94-.1,5.882-.2c.079,0,.113-.023.136-.1q.81-2.843,1.627-5.683c.006-.022.014-.043.027-.085.018.042.029.068.039.094q1.011,2.778,2.02,5.556a.105.105,0,0,0,.126.082q2.94-.105,5.882-.207l.1,0Z" fill="#d2a04a"/>
      <path id="Path_172" data-name="Path 172" d="M39.627,208.511l-.318.162q-5.337,2.7-10.677,5.394a.2.2,0,0,0-.124.25q.938,6,1.864,12c.01.061.014.122.026.224l-.339-.338q-4.2-4.224-8.393-8.451a.175.175,0,0,0-.249-.032Q16,220.459,10.574,223.2l-.2.1c.038-.086.06-.142.087-.195q2.772-5.4,5.548-10.8a.206.206,0,0,0-.042-.291q-4.281-4.3-8.555-8.605a.478.478,0,0,1-.113-.159l.186.03q5.967.965,11.933,1.932a.246.246,0,0,0,.315-.154q2.764-5.4,5.541-10.8c.021-.041.044-.08.089-.161.018.092.031.149.04.206q.931,6,1.858,12c.022.147.08.194.22.216q5.967.959,11.934,1.926l.2.032Z" fill="#d2a04a"/>
      <path id="Path_173" data-name="Path 173" d="M185.925,130.67a48.151,48.151,0,0,1,7.935-1.736l.037-.005a22.121,22.121,0,0,0,4.733-1.272c4.4-1.757,5.556-4.284,5.754-6.094a5.113,5.113,0,0,0-1.037-3.842,7.2,7.2,0,0,0-3.88-2.278c-.2-.054-.41-.105-.622-.15a16.759,16.759,0,0,0-3.235-.351c-1.429-.015-3,.084-4.521.18a31.159,31.159,0,0,1-7.3-.064l-.12-.025c-2.258-.486-2.681-1.538-2.8-2.5a3.267,3.267,0,0,1,1.446-3.279,10.72,10.72,0,0,1,3.392-1.479l.182-.053c4.669-1.361,15.787-4.616,18.141-5.425a16.135,16.135,0,0,0,5.291-2.72,6.669,6.669,0,0,0,2.212-7.086,5.281,5.281,0,0,0-2.495-3.41,6.117,6.117,0,0,0-1.748-.652,8.684,8.684,0,0,0-1.678-.183,13.384,13.384,0,0,0-3.2.37l.336,1.355.36,1.468a10.573,10.573,0,0,1,2.448-.251,6.119,6.119,0,0,1,1.119.125,2.649,2.649,0,0,1,2.258,2.063,3.527,3.527,0,0,1-1.226,3.918,14.1,14.1,0,0,1-4.394,2.2c-2.367.814-14.395,4.331-18.026,5.389l-.171.05a13.253,13.253,0,0,0-4.251,1.906c-.191.141-.376.291-.548.445a6.359,6.359,0,0,0-2.12,5.745c.316,2.62,1.95,4.267,4.858,4.893l.14.029a32.688,32.688,0,0,0,7.94.107c1.545-.1,3-.189,4.341-.175a13.786,13.786,0,0,1,2.722.291,5.6,5.6,0,0,1,3.091,1.533,2.078,2.078,0,0,1,.42,1.623c-.189,1.735-2.234,2.9-3.915,3.572a20.009,20.009,0,0,1-4.106,1.108l-.013,0-.014,0a50.436,50.436,0,0,0-8.377,1.831c-5.618,1.744-9.648,4.149-12,7.159l2.186,1.651c2-2.416,5.583-4.472,10.454-5.984" fill="#006341"/>
    </g>
  </g>
</svg>
