<svg id="ic_freedrinkfood" xmlns="http://www.w3.org/2000/svg" xmlns:xlink="http://www.w3.org/1999/xlink" width="259.393" height="325.442" viewBox="0 0 259.393 325.442">
  <defs>
    <clipPath id="clip-path">
      <rect id="Rectangle_13" data-name="Rectangle 13" width="259.393" height="325.442" fill="none"/>
    </clipPath>
  </defs>
  <rect id="Rectangle_12" data-name="Rectangle 12" width="8.163" height="96.765" transform="translate(64.503 0.991) rotate(-6.973)" fill="#006341"/>
  <g id="Group_27" data-name="Group 27">
    <g id="Group_26" data-name="Group 26" clip-path="url(#clip-path)">
      <path id="Path_55" data-name="Path 55" d="M95.689,71.208,59.263,75.664C40.726,84.493,29,102.624,31.359,121.9c3.048,24.922,28.478,42.317,56.8,38.853s48.808-26.476,45.759-51.4c-2.358-19.277-18.108-34.047-38.227-38.148" fill="#fff"/>
      <path id="Path_56" data-name="Path 56" d="M140.891,116.393l-1.085-5.654c-.459-3.75-25.015-5.144-57.69-1.147s-56.376,9.569-55.709,15.019l.224,5.046s-.088,4.124,13.825,3.74c15.681-.433,45.489-4.975,45.489-4.975l-.062-.383c5.348-.412,28.888-2.4,42.406-5.387,13.138-2.906,12.6-6.259,12.6-6.259" fill="#fff"/>
      <path id="Path_57" data-name="Path 57" d="M64.426,267.48s5.066,6,38.759,1.875c30.989-3.79,34.017-10.777,34.017-10.777l-1.895-144.45s-12.694-2.529-52.4,2.328S32.1,126.949,32.1,126.949Z" fill="#fff"/>
      <path id="Path_58" data-name="Path 58" d="M121.891,177.831a30.95,30.95,0,1,1-34.478-26.962,30.949,30.949,0,0,1,34.478,26.962" fill="#006341"/>
      <path id="Path_59" data-name="Path 59" d="M258.257,165.012l1.136-9.533c-.517-1.748-6.216-5.029-6.216-5.029l.354-11.3s2.73-9.395-47.867-17.585l-.049-.008-.05-.008c-50.6-8.166-50.969,1.61-50.969,1.61l-3.226,10.84a13.662,13.662,0,0,0-7.483,2.814l-1.81,8.691s-.794,2.542,5.788,5.385l-7.884,140.963s3.275,7.343,37.594,12.89c31.564,5.1,36.534-.908,36.534-.908l37.536-136.238c6.358-.542,6.612-2.58,6.612-2.58" fill="#fff"/>
      <path id="Path_60" data-name="Path 60" d="M219.907,224.956a30.676,30.676,0,1,1-25.388-35.178,30.675,30.675,0,0,1,25.388,35.178" fill="#006341"/>
      <path id="Path_61" data-name="Path 61" d="M17.666,259.293s-35.367,34.893-6.018,58.9c0,0,22.276,17.64,73.305-2.124s32.6-47.363,30.7-50.155c-1.819-2.677-18.8-29.593-60.348-24.529a50.253,50.253,0,0,0-11.78,2.894,93.073,93.073,0,0,0-25.86,15.012" fill="#d2a04a"/>
      <path id="Path_62" data-name="Path 62" d="M83.5,243.1q-2.1-.577-4.358-1.033c-.123.091-.249.18-.37.272q-.491-.267-.992-.527a73.171,73.171,0,0,0-17.681-.872,49.829,49.829,0,0,0-9.259,7.116,58.333,58.333,0,0,0-9.73-2.816c-1.852.767-3.931,1.7-6.162,2.822a85.141,85.141,0,0,1,12.42,3.722,57.555,57.555,0,0,0-7.138,10.777A59.126,59.126,0,0,0,27,256.977c2.464-3.44,4.6-6.211,5.9-7.858-1.813.966-3.707,2.051-5.648,3.265q-1.634,1.97-3.051,3.875c-.676-.156-1.364-.3-2.059-.436q-2.1,1.523-4.218,3.253c.94.226,2.154.54,3.607.964-9.533,14.307-10.1,24.639-10.1,24.639,2.581-7.73,7.954-16.634,12.837-23.795a106.8,106.8,0,0,1,14.052,5.729,64.033,64.033,0,0,0-4.893,17.906,75.3,75.3,0,0,1,7.5-16.579,104.717,104.717,0,0,1,16.336,10.631A43.764,43.764,0,0,0,56.6,282.9q.6-1.944,1.3-3.822,1.572,1.269,3.135,2.64a40.4,40.4,0,0,0-2.719-3.725,81.455,81.455,0,0,1,8.807-16.365,101.558,101.558,0,0,1,12.651,9.46,58.2,58.2,0,0,0-10.8-12.058,105.989,105.989,0,0,1,9.937-11.55,103.959,103.959,0,0,1,21.795,14.647,62.244,62.244,0,0,0-18.541-17.8q.688-.642,1.34-1.226m-25.926,34A65.5,65.5,0,0,0,43.2,264.366a100.381,100.381,0,0,1,8.429-10.878,108.508,108.508,0,0,1,12.406,6.251A67.807,67.807,0,0,0,57.578,277.1M65.9,256.531a62.141,62.141,0,0,0-10.9-6.679,107.4,107.4,0,0,1,9.229-8.464,105.82,105.82,0,0,1,10.684,4.178A53.827,53.827,0,0,0,65.9,256.531" fill="#b5802c"/>
      <path id="Path_63" data-name="Path 63" d="M40.77,263.7a57.523,57.523,0,0,1,7.138-10.777q-.558-.21-1.124-.416a57.848,57.848,0,0,0-6.549,10.056,59.267,59.267,0,0,0-12.121-5.254c-.2.281-.391.553-.574.808A59.118,59.118,0,0,1,40.77,263.7" fill="#aa7325"/>
      <path id="Path_64" data-name="Path 64" d="M64.91,260.254c-.292-.171-.581-.335-.871-.5A67.617,67.617,0,0,0,57.578,277.1,65.6,65.6,0,0,0,44.1,264.966c-.122.18-.245.356-.366.537a65.522,65.522,0,0,1,14.381,12.729,73.762,73.762,0,0,1,6.8-17.978" fill="#aa7325"/>
      <path id="Path_65" data-name="Path 65" d="M38.86,267.75l.327-.727-.862-.41-.307.728a63.721,63.721,0,0,0-4.586,17.178c.42-1.367.883-2.708,1.379-4.025A68.825,68.825,0,0,1,38.86,267.75" fill="#aa7325"/>
      <path id="Path_66" data-name="Path 66" d="M56.6,282.9c.339-1.107.712-2.2,1.1-3.27-.184-.146-.368-.289-.552-.433-.434,2.315-.551,3.7-.551,3.7" fill="#aa7325"/>
      <path id="Path_67" data-name="Path 67" d="M74.922,245.568A61.589,61.589,0,0,0,65.9,256.531a62.379,62.379,0,0,0-9.785-6.129c-.191.193-.382.388-.575.586a62.144,62.144,0,0,1,10.9,6.68A60.869,60.869,0,0,1,76.1,246.091c-.4-.18-.785-.352-1.174-.523" fill="#aa7325"/>
      <path id="Path_68" data-name="Path 68" d="M12.88,280.885a65.417,65.417,0,0,1,9.194-19.707c-.3-.087-.658-.206-1.053-.343-9.031,13.892-9.585,23.845-9.585,23.845.413-1.239.9-2.508,1.444-3.795" fill="#aa7325"/>
      <path id="Path_69" data-name="Path 69" d="M58.849,279.127c.647.8,1.177,1.506,1.593,2.08.2.17.394.335.59.508,0,0-.687-1.116-2.061-2.892-.04.1-.082.2-.122.3" fill="#aa7325"/>
      <path id="Path_70" data-name="Path 70" d="M68.66,259.4a75.521,75.521,0,0,1,10.521,11.175c.2.17.394.335.59.507A61.494,61.494,0,0,0,68.962,259c-.1.135-.2.264-.3.4" fill="#aa7325"/>
      <path id="Path_71" data-name="Path 71" d="M82.172,244.342c-.189.218-.351.4-.458.5a72.728,72.728,0,0,1,18.4,16.776c.2.17.394.337.591.51a63.986,63.986,0,0,0-18.533-17.783" fill="#aa7325"/>
      <path id="Path_72" data-name="Path 72" d="M51.379,249.192a67.084,67.084,0,0,1,9.87-8.321c-.38.02-.762.042-1.146.068a49.829,49.829,0,0,0-9.259,7.116,58.333,58.333,0,0,0-9.73-2.816c-.311.129-.63.264-.953.4a104.22,104.22,0,0,1,11.218,3.551" fill="#aa7325"/>
      <path id="Path_73" data-name="Path 73" d="M24.744,257.4c.743-1,2.735-4.064,4.083-5.97q-.778.467-1.568.958-1.634,1.971-3.05,3.875-1.016-.234-2.06-.435c-.2.144-.4.293-.6.441,1.03.35,2.668,1.009,3.195,1.131" fill="#aa7325"/>
      <path id="Path_74" data-name="Path 74" d="M72.828,241.122s4.383,2.184,5.517,2.9l1.592-1.831a58.836,58.836,0,0,0-7.109-1.07" fill="#ca9837"/>
      <path id="Path_75" data-name="Path 75" d="M70.47,288.685c.017.408-.518.762-1.194.789s-1.237-.281-1.254-.69.518-.761,1.194-.788,1.237.281,1.254.689" fill="#b5802d"/>
      <path id="Path_76" data-name="Path 76" d="M71.512,270.354c.056.4-.441.808-1.111.9s-1.259-.159-1.315-.564.441-.809,1.111-.9,1.259.159,1.315.564" fill="#b5802d"/>
      <path id="Path_77" data-name="Path 77" d="M68.181,273.478c.034.244-.266.488-.671.545s-.761-.1-.8-.341.267-.488.672-.545.76.1.794.341" fill="#b5802d"/>
      <path id="Path_78" data-name="Path 78" d="M56.776,293.1c.034.244-.266.488-.671.545s-.761-.1-.795-.341.267-.488.672-.545.76.1.794.341" fill="#b5802d"/>
      <path id="Path_79" data-name="Path 79" d="M58.087,287.342c.024.176-.191.351-.482.391s-.547-.069-.571-.244.191-.351.482-.392.547.069.571.245" fill="#b5802d"/>
      <path id="Path_80" data-name="Path 80" d="M84.119,277.554c.061.435-.434.863-1.1.956s-1.262-.183-1.322-.618.433-.863,1.1-.956,1.262.183,1.323.618" fill="#b5802d"/>
      <path id="Path_81" data-name="Path 81" d="M42.015,295c.017.408-.518.762-1.194.789s-1.237-.281-1.254-.69.518-.761,1.194-.788,1.237.281,1.254.689" fill="#b5802d"/>
      <path id="Path_82" data-name="Path 82" d="M43.057,276.671c.056.4-.441.808-1.111.9s-1.259-.159-1.315-.564.441-.809,1.111-.9,1.259.159,1.315.564" fill="#b5802d"/>
      <path id="Path_83" data-name="Path 83" d="M39.727,279.8c.033.244-.267.488-.671.545s-.762-.1-.8-.341.268-.488.672-.545.761.1.8.341" fill="#b5802d"/>
      <path id="Path_84" data-name="Path 84" d="M28.321,299.414c.034.244-.266.488-.671.545s-.761-.1-.8-.341.267-.488.672-.545.76.1.794.341" fill="#b5802d"/>
      <path id="Path_85" data-name="Path 85" d="M29.633,293.659c.024.176-.191.351-.482.391s-.547-.069-.571-.244.191-.351.482-.392.547.069.571.245" fill="#b5802d"/>
      <path id="Path_86" data-name="Path 86" d="M53.655,285.591c.061.435-.434.863-1.1.956s-1.262-.183-1.322-.618.433-.863,1.1-.956,1.262.183,1.323.618" fill="#b5802d"/>
      <path id="Path_87" data-name="Path 87" d="M92.912,268.255c.026-.408.594-.7,1.269-.661s1.2.407,1.176.815-.594.7-1.269.661-1.2-.407-1.176-.815" fill="#b5802d"/>
      <path id="Path_88" data-name="Path 88" d="M85.407,265.909c-.015-.408.521-.759,1.2-.782s1.236.288,1.25.7-.522.758-1.2.782-1.236-.289-1.25-.7" fill="#b5802d"/>
      <path id="Path_89" data-name="Path 89" d="M89.042,263.145c-.009-.247.315-.458.724-.472s.746.174.755.42-.316.459-.724.473-.746-.174-.755-.421" fill="#b5802d"/>
      <path id="Path_90" data-name="Path 90" d="M82.516,259.712c-.025-.246.285-.478.691-.519s.756.125.781.371-.285.478-.691.518-.756-.124-.781-.37" fill="#b5802d"/>
      <path id="Path_91" data-name="Path 91" d="M106.989,265.282c-.009-.247.315-.458.724-.472s.746.174.755.42-.316.459-.724.473-.746-.174-.755-.421" fill="#b5802d"/>
      <path id="Path_92" data-name="Path 92" d="M105.09,270.871c-.006-.177.227-.329.52-.339s.537.125.543.3-.227.329-.52.339-.537-.125-.543-.3" fill="#b5802d"/>
      <path id="Path_93" data-name="Path 93" d="M73.61,257.445c-.015-.439.52-.814,1.2-.837s1.237.313,1.252.752-.52.813-1.2.837-1.237-.313-1.252-.752" fill="#b5802d"/>
      <path id="Path_94" data-name="Path 94" d="M24.753,273.591c-.027.408-.595.7-1.27.661s-1.2-.407-1.176-.815.594-.7,1.269-.661,1.2.407,1.177.815" fill="#b5802d"/>
      <path id="Path_95" data-name="Path 95" d="M32.258,275.937c.014.408-.522.759-1.2.782s-1.236-.288-1.25-.7.522-.758,1.2-.782,1.236.289,1.25.7" fill="#b5802d"/>
      <path id="Path_96" data-name="Path 96" d="M28.622,278.7c.009.247-.315.458-.724.472s-.746-.174-.755-.42.316-.459.724-.473.746.174.755.421" fill="#b5802d"/>
      <path id="Path_97" data-name="Path 97" d="M30.212,267.912c.025.246-.285.478-.691.519s-.756-.125-.781-.371.285-.478.691-.518.756.124.781.37" fill="#b5802d"/>
      <path id="Path_98" data-name="Path 98" d="M13.667,266.344c.025.246-.285.478-.691.519s-.756-.125-.781-.371.285-.478.691-.518.756.124.781.37" fill="#b5802d"/>
      <path id="Path_99" data-name="Path 99" d="M10.675,276.564c.009.247-.315.458-.724.472s-.746-.174-.755-.42.316-.459.724-.473.746.174.755.421" fill="#b5802d"/>
      <path id="Path_100" data-name="Path 100" d="M12.575,270.975c.006.177-.227.329-.52.339s-.537-.125-.543-.3.227-.329.52-.339.537.125.543.3" fill="#b5802d"/>
      <path id="Path_101" data-name="Path 101" d="M44.054,284.4c.015.439-.52.814-1.2.837s-1.237-.313-1.252-.752.52-.813,1.2-.837,1.237.313,1.252.752" fill="#b5802d"/>
      <path id="Path_102" data-name="Path 102" d="M24.071,287.328c.056.4-.441.808-1.111.9s-1.259-.159-1.315-.564.441-.809,1.111-.9,1.259.159,1.315.564" fill="#b5802d"/>
      <path id="Path_103" data-name="Path 103" d="M19.6,282.291c.034.244-.266.488-.671.545s-.761-.1-.8-.341.267-.488.672-.545.76.1.794.341" fill="#b5802d"/>
      <path id="Path_104" data-name="Path 104" d="M53.987,259.081c.056.4-.441.808-1.111.9s-1.259-.159-1.315-.564.441-.809,1.111-.9,1.259.159,1.315.564" fill="#b5802d"/>
      <path id="Path_105" data-name="Path 105" d="M50.656,262.206c.034.244-.266.488-.671.545s-.761-.1-.8-.341.267-.488.672-.545.76.1.794.341" fill="#b5802d"/>
      <path id="Path_106" data-name="Path 106" d="M53.284,243.017c.048.343-.374.685-.941.764s-1.066-.135-1.114-.478.374-.685.941-.764,1.066.135,1.114.478" fill="#b5802d"/>
      <path id="Path_107" data-name="Path 107" d="M50.463,245.663c.029.207-.226.414-.568.461s-.645-.081-.673-.288.225-.414.568-.461.644.081.673.288" fill="#b5802d"/>
      <path id="Path_108" data-name="Path 108" d="M37.1,257.92c-.083-.4.388-.835,1.05-.972s1.267.077,1.349.477-.387.836-1.05.972-1.266-.077-1.349-.477" fill="#b5802d"/>
      <path id="Path_109" data-name="Path 109" d="M40.223,254.586c-.05-.242.234-.505.634-.587s.765.046.815.288-.234.505-.634.587-.765-.046-.815-.288" fill="#b5802d"/>
      <path id="Path_110" data-name="Path 110" d="M58.143,264.352c.107.519-.5,1.082-1.361,1.259s-1.641-.1-1.748-.618.5-1.082,1.361-1.259,1.641.1,1.748.618" fill="#b5802d"/>
      <path id="Path_111" data-name="Path 111" d="M65.247,244.386c.056.4-.441.808-1.111.9s-1.259-.159-1.315-.564.441-.809,1.111-.9,1.259.159,1.315.564" fill="#b5802d"/>
      <path id="Path_112" data-name="Path 112" d="M61.916,247.511c.034.244-.266.488-.671.545s-.761-.1-.795-.341.267-.488.672-.545.76.1.794.341" fill="#b5802d"/>
      <path id="Path_113" data-name="Path 113" d="M68.713,247.655c.107.519-.5,1.082-1.361,1.259s-1.641-.1-1.748-.618.5-1.082,1.361-1.259,1.641.1,1.748.618" fill="#b5802d"/>
      <path id="Path_114" data-name="Path 114" d="M52.913,250.913c.065.313-.3.654-.822.761s-.991-.061-1.056-.374.3-.654.822-.761.991.061,1.056.374" fill="#aa7325"/>
      <path id="Path_115" data-name="Path 115" d="M37.145,264.024c.039.189-.183.4-.5.46s-.6-.037-.637-.226.183-.395.5-.46.6.037.638.226" fill="#aa7325"/>
      <path id="Path_116" data-name="Path 116" d="M34.96,253.427c.039.189-.183.4-.5.46s-.6-.037-.637-.226.183-.395.5-.46.6.037.638.226" fill="#aa7325"/>
      <path id="Path_117" data-name="Path 117" d="M78.175,246.851c.047.229-.222.478-.6.556s-.725-.044-.772-.273.222-.478.6-.556.725.044.772.273" fill="#aa7325"/>
      <path id="Path_118" data-name="Path 118" d="M239.335,182.726l-.179.14q-3,2.348-6.009,4.692a.126.126,0,0,0-.046.172q1.326,3.633,2.647,7.27c.014.037.024.075.044.137l-.253-.17q-3.147-2.122-6.292-4.247a.112.112,0,0,0-.16.011q-3.05,2.387-6.1,4.769c-.031.025-.063.049-.112.086.014-.058.02-.1.031-.132q1.066-3.72,2.135-7.438a.131.131,0,0,0-.063-.176q-3.208-2.16-6.412-4.324a.293.293,0,0,1-.09-.085l.12,0q3.849-.135,7.7-.267a.156.156,0,0,0,.178-.135q1.061-3.72,2.13-7.438c.008-.028.018-.056.036-.112.022.056.037.09.05.124q1.323,3.636,2.644,7.272a.139.139,0,0,0,.164.108q3.851-.138,7.7-.271l.13,0,.01.023" fill="#d2a04a"/>
      <path id="Path_119" data-name="Path 119" d="M223.428,90.309l-.25.128q-4.21,2.129-8.423,4.254a.155.155,0,0,0-.1.2q.738,4.731,1.47,9.463c.007.048.011.1.02.177l-.267-.267q-3.312-3.332-6.62-6.666a.139.139,0,0,0-.2-.025q-4.275,2.165-8.553,4.326l-.156.078c.029-.068.047-.112.068-.154q2.187-4.26,4.377-8.518a.164.164,0,0,0-.034-.23q-3.377-3.392-6.748-6.788a.362.362,0,0,1-.089-.125l.147.024q4.707.761,9.413,1.524a.2.2,0,0,0,.248-.122q2.181-4.261,4.371-8.52c.016-.032.035-.063.07-.127.014.073.024.118.031.162q.735,4.732,1.466,9.464c.018.116.063.153.174.171q4.707.756,9.413,1.519l.16.025.006.03" fill="#d2a04a"/>
      <path id="Path_120" data-name="Path 120" d="M152.943,219.991l-.3.234q-5,3.9-10,7.806a.208.208,0,0,0-.078.285q2.208,6.047,4.4,12.1c.023.061.041.124.074.228l-.422-.282q-5.236-3.531-10.468-7.066a.187.187,0,0,0-.266.018q-5.075,3.969-10.152,7.934l-.186.144c.022-.1.033-.16.05-.221q1.774-6.187,3.552-12.374a.219.219,0,0,0-.1-.294q-5.337-3.592-10.669-7.193a.5.5,0,0,1-.15-.142l.2-.007q6.405-.224,12.811-.443a.26.26,0,0,0,.295-.225q1.766-6.19,3.544-12.376c.013-.046.029-.092.059-.185.038.092.063.148.084.206q2.2,6.048,4.4,12.1a.23.23,0,0,0,.274.179q6.405-.229,12.81-.45l.217-.007.016.037" fill="#d2a04a"/>
      <path id="Path_121" data-name="Path 121" d="M249.409,278.306h.01c-.027,0-.027,0,0,0h-.02l-13.149,0v17.831c.364-2.785,2.806-17.823,13.159-17.833" fill="#d2a04a"/>
      <path id="Path_122" data-name="Path 122" d="M236.25,260.473V278.3l13.148,0c-10.343-.02-12.784-15.048-13.148-17.832" fill="#d2a04a"/>
      <path id="Path_123" data-name="Path 123" d="M223.069,278.307h.01c10.353.011,12.795,15.048,13.159,17.833v-17.83l-13.148,0h-.021Z" fill="#d2a04a"/>
      <path id="Path_124" data-name="Path 124" d="M236.238,260.473c-.364,2.784-2.805,17.812-13.148,17.832l13.148,0Z" fill="#d2a04a"/>
      <path id="Path_125" data-name="Path 125" d="M199.687,63.317c-.2.146-.4.292-.6.436Q189.049,71.049,179,78.339a.406.406,0,0,0-.171.553q3.9,11.976,7.79,23.958c.04.121.07.246.128.451l-.807-.581q-10-7.265-19.991-14.534a.366.366,0,0,0-.521.017q-10.2,7.417-20.4,14.826c-.1.076-.209.15-.373.267.05-.187.076-.31.114-.428q3.891-11.98,7.791-23.959a.429.429,0,0,0-.183-.582q-10.194-7.389-20.375-14.8a.972.972,0,0,1-.284-.288h.391q12.543,0,25.085.007a.51.51,0,0,0,.594-.42q3.875-11.985,7.775-23.963c.03-.09.064-.178.129-.358.068.184.113.294.15.408q3.893,11.98,7.778,23.962a.451.451,0,0,0,.523.37q12.543-.012,25.085-.006h.425c.01.024.019.049.029.074" fill="#d2a04a"/>
      <path id="Path_126" data-name="Path 126" d="M60.5,90.737l-.4.146q-6.663,2.439-13.326,4.872a.233.233,0,0,0-.181.278q.271,7.194.531,14.389c0,.073,0,.146,0,.268-.137-.174-.245-.309-.352-.446q-4.359-5.558-8.713-11.119a.21.21,0,0,0-.289-.073Q31,101.533,24.237,104.008l-.247.089c.056-.1.09-.159.129-.218q4.016-5.976,8.035-11.95a.246.246,0,0,0-.01-.349Q27.7,85.922,23.261,80.256a.546.546,0,0,1-.111-.2l.215.061q6.894,1.964,13.788,3.932a.292.292,0,0,0,.392-.138q4.007-5.982,8.027-11.955c.03-.045.063-.088.127-.177.008.112.016.18.018.248q.264,7.2.524,14.39a.258.258,0,0,0,.229.286q6.9,1.956,13.79,3.924l.234.067,0,.045" fill="#d2a04a"/>
    </g>
  </g>
</svg>
