<svg xmlns="http://www.w3.org/2000/svg" xmlns:xlink="http://www.w3.org/1999/xlink" width="298" height="316" viewBox="0 0 298 316">
  <defs>
    <clipPath id="clip-path">
      <rect id="Rectangle_20" data-name="Rectangle 20" width="298" height="316" transform="translate(825 599)" fill="#fff" stroke="#707070" stroke-width="1"/>
    </clipPath>
    <clipPath id="clip-path-2">
      <rect id="Rectangle_16" data-name="Rectangle 16" width="122.574" height="96.585" transform="matrix(0.21, -0.978, 0.978, 0.21, 171.148, 254.902)" fill="none"/>
    </clipPath>
    <clipPath id="clip-path-3">
      <rect id="Rectangle_17" data-name="Rectangle 17" width="375.154" height="459.553" fill="none"/>
    </clipPath>
    <clipPath id="clip-path-4">
      <path id="Path_147" data-name="Path 147" d="M0,0,21.163,264.784,63.718,278.9l1.089,28.884a5.721,5.721,0,0,0,6.565,5.391l65.434-15.3a4.817,4.817,0,0,0,4.08-5.213l-1.978-21.084,89.815,12.472V0Z" fill="none"/>
    </clipPath>
  </defs>
  <g id="ic_morderpay" transform="translate(-825 -599)" clip-path="url(#clip-path)">
    <g id="Group_37" data-name="Group 37" transform="translate(808.373 599)">
      <rect id="Rectangle_15" data-name="Rectangle 15" width="122.573" height="96.584" transform="matrix(0.21, -0.978, 0.978, 0.21, 171.148, 254.901)" fill="#998e7e"/>
      <path id="Path_127" data-name="Path 127" d="M285.748,263.225l-20.178,12,25.8-119.828,20.178-12Z" fill="#998e7e"/>
      <path id="Path_128" data-name="Path 128" d="M196.945,135.074,291.365,155.4l20.179-12L226.7,125.134Z" fill="#807e68"/>
      <g id="Group_30" data-name="Group 30">
        <g id="Group_29" data-name="Group 29" clip-path="url(#clip-path-2)">
          <path id="Path_129" data-name="Path 129" d="M239.8,111.828a101.5,101.5,0,0,0-34.017-7.323c-.886-.037-1.026-.94-.273-1.279.68-.3,20.407-9.557,20.407-9.557s14.17,16.551,14.657,17.105c.547.62.045,1.385-.774,1.054m-47.314,77.453a1.978,1.978,0,0,0-1.369.866c2.959,3.486,4.082,10.218,11.487,11.812s11.19-4.081,15.317-6.041a1.96,1.96,0,0,0-.881-1.352,71.995,71.995,0,0,1-24.554-5.285m14.53-7.809c-2.056-.442-2.347-1.322-3.752-1.625-1.335-.27-4.158.228-4.94,1.088a2.334,2.334,0,0,0,.295,1.456c2.9,1.094,3.9,3.056,7.379,3.806s5.184-.631,8.283-.434a2.194,2.194,0,0,0,.862-1.208c-.345-1.1-2.716-2.717-4.054-3.023-1.4-.3-2.019.383-4.073-.06M369,249.8c-1.091,3.989-2.3,7.931-3.655,11.791-19.821-.948-23.005-19.492-42.8-22.868a125.526,125.526,0,0,1,.112,13.349c16.182,3.466,19.451,19.993,37.912,21.645q-2.907,6.631-6.337,12.94c-14.536-1.66-16.5-16.878-33.044-20.036q-.552,3.566-1.318,7.148c-.284,1.321-.606,2.634-.925,3.937,14.077,2.848,15.852,16.818,29.353,19.079-2.65,4.194-5.48,8.23-8.464,12.149-9.5-2.6-10.162-15.639-25-17.815-1.112,3.072-2.346,6.084-3.68,9.021,12.9,1.837,13.117,14.135,22.009,17.028q-4.839,5.61-10.13,10.748c-4.774-4.049-7.568-13.772-17.667-16.5,1.732-3.009,3.367-6.092,4.864-9.264a43.265,43.265,0,0,1-25.656-17.508c6.26-15.434-15.128-37.131-12.6-48.893,2.745-12.755,10.724-18.43,14.426-35.624,2.75-12.776-.47-27.966-7.78-39.447a32.2,32.2,0,0,0-4.8-5.91c6.309,12.483,10.2,26.505,7.05,41.111-3.487,16.205-12.871,23.135-16.09,38.09s15.876,32.608,12.56,48.015c-1.306,6.063-4.526,11.572-13.416,21.833,7.7,11.928,19.345,20.033,27.594,21.809,2.679.577,4.291.078,5.7-1.828,1.219-1.64,2.392-3.306,3.536-5,8.808,2.26,11.142,11.218,15.365,15.506-3.469,3.046-7.07,5.937-10.77,8.684-2.51-4.361-5.616-11.464-11.736-14.567-1.654,2.008-3.361,3.974-5.123,5.868,5.258,2.725,7.871,9.185,10.031,13.527q-5.846,3.926-12.007,7.372c-1.442-3.815-3.881-8.814-7.16-11.919q-2.688,2.39-5.516,4.573c2.734,2.873,4.724,7.371,5.884,10.943-4.685,2.353-9.469,4.512-14.358,6.434,1.6-17.629-19.319-34.461-8.709-53.031-2.83,3.071-6.243,6.932-7.381,12.22-3.106,14.425,9.789,29.182,7.935,43.778q-5.409,1.836-10.925,3.3c2.841-15.875-9.737-36.623-6.951-49.562,3.108-14.439,25.153-24.874,28.82-41.911s-15.608-33.557-12.384-48.532c3.22-14.958,14.35-21.568,18.478-40.744a52.386,52.386,0,0,0-8.932-41.021,28.826,28.826,0,0,0-4.919-5.245c7.208,13.744,10.565,25.549,7.108,41.6-3.882,18.033-16.655,25.759-20.457,43.413s15.481,32.1,11.939,48.552S232.537,304.093,228.9,321c-3.31,15.378,10.944,34.529,7.285,52.838-4.207.841-8.448,1.542-12.729,2.063,6.212-17.963-9.469-41.232-6.228-56.28,3.543-16.457,27.252-26.152,31.069-43.886s-15.411-30.519-11.491-48.726,18.983-25.514,23.312-45.626a50.129,50.129,0,0,0-10.758-42.614c-.2-.235-.4-.468-.6-.7-.895-1.021-1.979-.255-1.431.842,5.857,11.727,7.955,22.76,4.735,37.718-3.962,18.4-21.99,30.165-25.828,47.993-4.528,21.034,14.071,31.335,10.354,48.6s-28.018,26.467-31.964,44.8c-3.657,16.986,12.468,40.2,4.787,59.071q-6.408.261-12.9.047c9.041-23.612-6.976-45.41-3.539-61.384,3.727-17.308,29.132-27.964,32.77-44.864,3.431-15.94-11.3-24.564-9.873-41.329a3.894,3.894,0,0,0-3.791-4.426c-3.349-.107-7.931,1.114-14.409-.281s-10.155-4.393-13.257-5.675a3.9,3.9,0,0,0-5.276,2.475c-5.586,15.87-22.573,17.665-26.006,33.6-3.638,16.9,15.132,37.065,11.405,54.373-3.438,15.974-27.006,29.25-28.483,54.491q-5.993-2.475-11.734-5.351c.762-20.363,25.012-34.881,28.67-51.868,3.944-18.328-14.419-36.722-10.705-53.98s24.907-19,29.435-40.032c3.838-17.828-7.756-35.964-3.793-54.369,3.22-14.958,9.675-24.15,19.839-32.428.952-.773.286-1.917-.957-1.356-.278.133-.557.262-.835.4a50.124,50.124,0,0,0-27.34,34.413c-4.33,20.111,6.4,32.975,2.483,51.179s-26.711,21.941-30.53,39.679,13.8,36.326,10.26,52.783c-3.241,15.049-27.1,29.8-28.84,48.731-3.683-2.235-7.261-4.619-10.748-7.117,4.194-18.194,25.06-29.785,28.371-45.162,3.638-16.906-13.285-35.088-9.742-51.538s27.057-21.675,30.858-39.339-4.67-29.953-.787-47.986c3.457-16.055,11.369-25.434,23.6-34.994a29.272,29.272,0,0,0-6.642,2.756,52.414,52.414,0,0,0-25.028,33.71c-4.127,19.176,3.3,29.782.084,44.74-3.224,14.975-27.577,22.089-31.248,39.139s12.121,35.617,9.011,50.055c-2.784,12.94-22.782,26.675-26.724,42.313q-4.422-3.6-8.6-7.5c4.314-14.067,22.151-22.208,25.256-36.633,1.138-5.288-.394-10.214-1.713-14.178C109.988,301.467,84,308.2,78.193,324.925c-3.664-3.764-7.138-7.7-10.436-11.772,2.528-2.779,6.19-6.06,9.863-7.553-1.112-2.1-2.169-4.249-3.147-6.439-4.265,1.482-8.543,5.034-11.429,7.918-2.786-3.779-5.437-7.672-7.907-11.659,3.752-3.07,8.791-7.883,14.707-8.2-.825-2.452-1.576-4.947-2.257-7.458-6.851.311-12.608,5.506-16.691,8.448q-3.363-6.039-6.249-12.348c5.621-2.168,11.428-9.374,20.4-7.808q.512,3.025,1.162,6.014c.506,2.32,1.775,3.438,4.444,4.013,8.258,1.778,22.2-.82,34.14-8.519-3.893-13.013-4.558-19.359-3.253-25.421,3.317-15.407,27.988-23.653,31.2-38.594s-2.48-25.132,1.009-41.337c3.144-14.606,12.453-25.787,23.338-34.569a32.214,32.214,0,0,0-6.8,3.413c-11.4,7.453-20.576,19.975-23.326,32.75-3.7,17.2,1.228,25.648-1.519,38.4-2.531,11.762-30.948,22.738-31.584,39.382a43.291,43.291,0,0,1-30.6,5.4c.062,3.507.28,6.989.621,10.445C53.553,257.763,47,265.474,40.988,267.2c-1.795-4.58-3.409-9.228-4.807-13.964,9.3,1.022,14.549-10.1,27.064-6.464,0-3.225.11-6.477.349-9.738-14.407-4.119-20.383,7.488-30.1,5.953-1.106-4.8-2.016-9.64-2.715-14.555,13.243,3.507,20.606-8.507,34.6-5.311.24-1.32.5-2.646.787-3.967.515-2.387,1.1-4.738,1.731-7.058-16.377-3.929-24.43,9.132-38.362,4.663q-.518-7.152-.451-14.4c17.508,6.092,27.285-7.627,43.461-4.127a122.582,122.582,0,0,1,5.6-12.12c-19.427-5.067-29.955,10.525-48.405,3.234.348-4.076.857-8.169,1.516-12.252,21.712,7.285,34-9.217,53.771-2.615a121.463,121.463,0,0,1,9.648-12.613c-24.439-9.928-37.638,9.446-60.57,1.092a173,173,0,0,1,338.112,72.788c-24.339-1.822-28.395-24.911-54.755-25.919a121.135,121.135,0,0,1,3.6,15.465C341.8,227.415,346.2,247.507,369,249.8M142.688,126.867c-11.346-7.772-26.681-9.846-41.344-4.35.586-12.4-3.629-24.439-11.5-32.856a1.555,1.555,0,0,0-2.806.894c-3.485,25.738-23.018,44.531-45.374,59.938,17.544,9.671,38.708-11.045,61.21,2.634a130.614,130.614,0,0,1,39.818-26.26m76.007.346c-15.7-3.38-30.772,2.67-36.683,13.4-.457.82-.22,1.468.9,1.228a23.74,23.74,0,0,1,9.938.164c6.4,1.377,11.539,4.961,13.994,9.752.424,5.2-.96,12.273-3.5,15.944-2.506-1.164-3.019-3.408-5.6-3.963s-4.95.836-9.32-.105-4.436-3.123-7.3-3.739c-3.375-.727-4.75,2.622-5.595,6.552-3.765,17.49,7.129,45.029,24.233,48.711s38.362-16.936,42.126-34.425c.846-3.93.761-7.46-2.671-8.68a10.889,10.889,0,0,1-7.923.81c-4.367-.94-5.179-3.017-7.758-3.572-3.1-.667-4.2,5.952-7.977,5.524-1.176-6.438.328-14.043,3.828-20.356,4.215-3.355,10.368-4.508,16.773-3.129a23.638,23.638,0,0,1,9.119,3.939c.922.679,1.4.185,1.323-.751-.97-12.211-12.209-23.924-27.907-27.3m19.592,30.468c-3.773-.812-8.424-.6-11.881,1.9a4.3,4.3,0,0,0-.5,2.945c7.328-.861,13.377.343,15.577,4.217a5.374,5.374,0,0,0,2.94-3.708c.488-2.273-1.476-4.348-6.136-5.352m-56.631-3.82c4-2.595,10.912-.952,17.541,3.257,1.086-3.52-4.487-8.818-10.9-10.2-4.661-1-7.315.078-7.8,2.352a5.356,5.356,0,0,0,1.164,4.59M302.6,117.928a57.078,57.078,0,0,0-34.513,5.376,129.284,129.284,0,0,1,20.488-25.467c-16.132-1.726-30.57,1.214-42.331,9.005l-3.282-21.379,19.911-11.182-22.057-6.408L236.367,45.12l-13.433,18.9-22.741-3.236L213.74,79.172,201.952,97.306c-7.509-11.938-19.46-20.56-34.873-25.625a129.37,129.37,0,0,1,8.194,31.642,57.049,57.049,0,0,0-29.242-19.1,153.591,153.591,0,0,1,12.3,34.788,2.1,2.1,0,0,0,2.8,1.649,130,130,0,0,1,112.709,24.264,2.1,2.1,0,0,0,3.236-.349A152.9,152.9,0,0,1,302.6,117.928" fill="#1e3932"/>
        </g>
      </g>
      <g id="Group_32" data-name="Group 32">
        <g id="Group_31" data-name="Group 31" clip-path="url(#clip-path-3)">
          <path id="Path_130" data-name="Path 130" d="M223.619,140.871,222.3,140.5a58.808,58.808,0,0,1,7.71-14.945c6.963-9.51,15.586-13.473,24.937-11.46,10.422,2.244,16.749,8.375,18.8,18.223,1.7,8.134-.088,16.431-.675,19.158l-1.344-.289c.577-2.678,2.331-10.826.676-18.757-1.945-9.319-7.9-15.114-17.7-17.223a19.361,19.361,0,0,0-13.777,1.985,30.8,30.8,0,0,0-9.73,9,57.713,57.713,0,0,0-7.579,14.681" fill="#615c4a"/>
          <path id="Path_131" data-name="Path 131" d="M244.486,128.961l-1.338-.315a47.258,47.258,0,0,1,6.747-14.354c6.5-9.073,15.344-12.705,25.569-10.5,22.579,4.86,20.437,26.657,18.468,35.8l-1.343-.289c1-4.621,1.85-11.5.278-18-2.131-8.821-8.067-14.339-17.643-16.4-9.736-2.1-17.854,1.275-24.131,10.019a46.184,46.184,0,0,0-6.607,14.042" fill="#615c4a"/>
        </g>
      </g>
      <g id="Group_34" data-name="Group 34">
        <g id="Group_33" data-name="Group 33" clip-path="url(#clip-path-4)">
          <path id="Path_132" data-name="Path 132" d="M186.795,59.947c5.687-2.647,8.381,5.2,8.549,9.809.41,11.449-5.975,19.032-15.906,24.5-9.8,5.39-16.076,1.857-13.74-9.049,1.868-8.718,12.965-21.472,21.1-25.257" fill="#da9f73"/>
          <path id="Path_133" data-name="Path 133" d="M46.139,66.555a1.643,1.643,0,0,0,.217.235c.127.116.244.238.371.353-.189-.2-.389-.392-.588-.588" fill="#372641"/>
          <path id="Path_134" data-name="Path 134" d="M50.979,81.866s-10.83-6.659-12,1.766,1.634,21.321,1.551,33.606c-.121,18.111-12.446,72.695-7.368,87.709s13.561,29.543,25.529,46.464,4.586,208.142,4.586,208.142l89.5-40.087-13.876-147.89c11.721-24.172,24.969-29.566,24.66-56.714-.018-1.4-65.063-44.282-65.063-44.282L79.082,145.471S66.55,122.271,65.795,117.4,50.979,81.866,50.979,81.866" fill="#da9f73"/>
          <path id="Path_135" data-name="Path 135" d="M68.807,245.2a.593.593,0,0,1-.155-1.166,55.921,55.921,0,0,0,12.223-4.807,35.751,35.751,0,0,0,15.762-16.363c4.934-10.613,3.96-22.876,2.273-31.295a80.745,80.745,0,0,0-5-16.143.593.593,0,1,1,1.075-.5,81.877,81.877,0,0,1,5.082,16.4c1.723,8.6,2.713,21.133-2.359,32.042a36.914,36.914,0,0,1-16.267,16.9,57.077,57.077,0,0,1-12.482,4.912.61.61,0,0,1-.156.021" fill="#223b34"/>
          <path id="Path_136" data-name="Path 136" d="M129.893,273.306c-4.2,0-8.873-1.281-14.112-3.85a.593.593,0,0,1,.523-1.065c8.812,4.321,15.915,4.876,21.717,1.7a.593.593,0,1,1,.57,1.04,17.766,17.766,0,0,1-8.7,2.179" fill="#223b34"/>
          <path id="Path_137" data-name="Path 137" d="M39.445,100.583a.593.593,0,0,1-.11-1.176,4.825,4.825,0,0,0,3.528-2.718C45.754,91.861,40.492,82.1,39.883,81l-.029-.053a.593.593,0,0,1,1.052-.548c1.065,1.918,6.14,11.611,2.975,16.9a5.994,5.994,0,0,1-4.325,3.275.6.6,0,0,1-.111.01" fill="#223b34"/>
          <path id="Path_138" data-name="Path 138" d="M50.99,81.919a57.011,57.011,0,0,1,9.175,17.948c6.453,20.427-2.567,81.478-7.239,82.766l-5.092-30.906Z" fill="#da9f73"/>
          <path id="Path_139" data-name="Path 139" d="M74.017,222.953l87.919.641a17.581,17.581,0,0,0,17.708-17.457l1.4-184.787a17.58,17.58,0,0,0-17.451-17.7l-87.919-.64A17.581,17.581,0,0,0,57.966,20.464l-1.4,184.787a17.579,17.579,0,0,0,17.451,17.7" fill="#fff"/>
          <path id="Path_140" data-name="Path 140" d="M75.1,217.645l85.951.626a12.98,12.98,0,0,0,13.076-12.891l1.394-183.35A12.982,12.982,0,0,0,162.63,8.957L76.679,8.331A12.984,12.984,0,0,0,63.6,21.222l-1.393,183.35A12.982,12.982,0,0,0,75.1,217.645" fill="#1e3932"/>
          <path id="Path_141" data-name="Path 141" d="M155.533,67.141l-.242-5.82c-.48-1-4.21-2.41-4.21-2.41l-.883-6.8s.726-5.892-30.372-5.9h-.06c-31.1.007-30.372,5.9-30.372,5.9l-.883,6.8a8.3,8.3,0,0,0-4.21,2.41l-.242,5.38s-.23,1.6,3.988,2.666l8.924,85.192s2.672,4.081,23.765,4.081c19.4,0,21.794-4.081,21.794-4.081l9.293-85.233c3.755-.94,3.71-2.185,3.71-2.185" fill="#fff"/>
          <path id="Path_142" data-name="Path 142" d="M138.367,106.756a18.612,18.612,0,1,1-18.612-18.612,18.612,18.612,0,0,1,18.612,18.612" fill="#006341"/>
          <path id="Path_143" data-name="Path 143" d="M150.719,195.552H85.7a3.374,3.374,0,0,1-3.374-3.374V176.656a3.375,3.375,0,0,1,3.374-3.374h65.02a3.374,3.374,0,0,1,3.373,3.374v15.522a3.373,3.373,0,0,1-3.373,3.374" fill="#296440"/>
          <path id="Path_144" data-name="Path 144" d="M164.85,196.955c-.608,2.355-.309,4.462,1.5,5.954,6.2,5.1,21.89-3.412,23.587-10.349a10.822,10.822,0,0,0,.21-5.269c-2.131-8.121-8.438-11.268-12.2-7.825-2.725,2.491-11.412,10.947-13.1,17.489" fill="#da9f73"/>
          <path id="Path_145" data-name="Path 145" d="M177.631,110.626c2.769-2.264,7.872-.339,9.754,2.667,3.509,5.608,2.907,11.6,1.228,18.088-1.448,5.6-5.469,10.423-9.605,14.3-8.157,7.655-15.112,5.786-15.551-5.357-.351-8.91,7.235-24.019,14.174-29.7" fill="#da9f73"/>
          <path id="Path_146" data-name="Path 146" d="M181.621,145.828c4.213-1.957,10.326,3.524,10.942,7.778,1.813,12.509-7.343,20.5-18.305,26.529-9.8,5.393-16.075,1.857-13.74-9.048,1.868-8.718,12.965-21.472,21.1-25.259" fill="#da9f73"/>
        </g>
      </g>
      <g id="Group_36" data-name="Group 36">
        <g id="Group_35" data-name="Group 35" clip-path="url(#clip-path-3)">
          <path id="Path_148" data-name="Path 148" d="M238.922,72.738H167.449a5.751,5.751,0,0,1-5.751-5.751V25.271a5.751,5.751,0,0,1,5.751-5.751h71.473a5.751,5.751,0,0,1,5.751,5.751V66.987a5.751,5.751,0,0,1-5.751,5.751" fill="#fff"/>
          <rect id="Rectangle_18" data-name="Rectangle 18" width="82.975" height="9.244" transform="translate(161.699 25.708)" fill="#006341"/>
          <path id="Path_149" data-name="Path 149" d="M179.864,48.744h-9.2a1.938,1.938,0,0,1-1.938-1.937V41.619a1.938,1.938,0,0,1,1.938-1.937h9.2a1.937,1.937,0,0,1,1.937,1.937v5.188a1.937,1.937,0,0,1-1.937,1.937" fill="#1e3932"/>
        </g>
      </g>
    </g>
  </g>
</svg>
