<?xml version="1.0" encoding="UTF-8"?>
<svg id="Layer_2" data-name="Layer 2" xmlns="http://www.w3.org/2000/svg" viewBox="0 0 325.7 57.57">
  <defs>
    <style>
      .cls-1 {
        fill: #1f1f1e;
      }

      .cls-2 {
        fill: #cba258;
        fill-rule: evenodd;
      }
    </style>
  </defs>
  <g id="Layer_2-2" data-name="Layer 2">
    <g>
      <path class="cls-1" d="m18.31,4.8v51.6h-9.67V14.69L0,18.32v-8.14l12.21-5.38h6.1Z"/>
      <g>
        <path class="cls-1" d="m272.87,39.32c0,11.92-8.65,18.24-20.06,18.24-9.88,0-15.7-4.07-18.75-6.18l3.49-7.12c3.42,2.18,8.65,5.38,14.61,5.38,6.4,0,10.47-3.63,10.47-10.1s-3.71-9.3-8.87-9.3c-5.81,0-9.01,3.49-10.97,5.45l-5.6-2.33,3.05-28.56h29.29v7.78h-22.24l-1.74,15.04c2.62-2.18,6.61-4.07,11.92-4.07,9.23,0,15.41,5.38,15.41,15.77Z"/>
        <path class="cls-1" d="m280.06,30.68c0-15.63,9.08-26.96,22.82-26.96s22.82,11.34,22.82,26.96-9.16,26.89-22.82,26.89-22.82-11.26-22.82-26.89Zm35.39,0c0-11.34-4.51-18.9-12.57-18.9s-12.57,7.56-12.57,18.9,4.43,18.82,12.57,18.82,12.57-7.49,12.57-18.82Z"/>
      </g>
      <path class="cls-1" d="m153.49,20.43v6.9h-34.74v-6.9h34.74Zm0,17.95v6.9h-34.74v-6.9h34.74Z"/>
      <path class="cls-1" d="m232.34,20.19h-7.93c.07.82.15,1.71.15,2.59s-.07,1.7-.15,2.52h7.93v5.12h-9.27c-2.97,6.82-10.3,10.82-20.61,10.82h-11.64v14.97h-9.64v-25.8h-7.78v-5.12h7.78v-5.11h-7.78v-5.12h7.78V4.32h21.27c10.3,0,17.57,3.93,20.61,10.75h9.27v5.12Zm-41.51-5.12h20.68c-2.15-1.71-5.26-2.59-9.41-2.59h-11.27v2.59Zm23.79,5.12h-23.79v5.11h23.79c.15-.82.22-1.63.22-2.52s-.07-1.78-.22-2.59Zm-3.04,10.23h-20.76v2.67h11.27c4.23,0,7.34-.96,9.49-2.67Z"/>
      <path class="cls-2" d="m67.16,0l-7.79,20.41h-20.98l16.54,13.69-5.55,20.72,17.78-11.97,17.78,11.97-5.55-20.72,16.54-13.69h-20.98L67.16,0Z"/>
    </g>
  </g>
</svg>