<?xml version="1.0" encoding="UTF-8"?>
<svg id="Layer_2" data-name="Layer 2" xmlns="http://www.w3.org/2000/svg" viewBox="0 0 91.7 91.7">
  <defs>
    <style>
      .cls-1 {
        fill: #02754a;
      }

      .cls-2 {
        fill: #31674d;
      }
    </style>
  </defs>
  <g id="Layer_6" data-name="Layer 6">
    <path class="cls-2" d="m59.58,63.06v4.85h-26.8v-4.85c8.92-7.52,19.34-15.44,19.34-23.68,0-4.57-2.73-6.85-6.69-6.85-4.51,0-7.24,3.06-8.8,6.69l-4.29-2.29c1.56-4.79,5.96-9.42,13.54-9.42s12.09,4.74,12.09,11.7c0,10.81-11.48,18.83-18.17,23.85h19.78Z"/>
    <path class="cls-1" d="m45.85,91.7C20.57,91.7,0,71.13,0,45.85S20.57,0,45.85,0s45.85,20.57,45.85,45.85-20.57,45.85-45.85,45.85Zm0-87.7C22.77,4,4,22.77,4,45.85s18.77,41.85,41.85,41.85,41.85-18.77,41.85-41.85S68.93,4,45.85,4Z"/>
  </g>
</svg>