<?xml version="1.0" encoding="UTF-8"?>
<svg id="Layer_2" data-name="Layer 2" xmlns="http://www.w3.org/2000/svg" viewBox="0 0 91.7 91.7">
  <defs>
    <style>
      .cls-1 {
        fill: #02754a;
      }

      .cls-2 {
        fill: #31674d;
      }
    </style>
  </defs>
  <g id="Layer_6" data-name="Layer 6">
    <path class="cls-2" d="m58.41,57.21c0,7.58-6.52,11.54-13.21,11.54s-10.59-2.28-12.54-3.85l2.06-4.46c2.01,1.39,5.41,3.29,9.7,3.29s8.08-2.12,8.08-6.63-3.46-7.13-10.81-7.13h-2.67v-4.12h2.67c7.08,0,9.64-3.68,9.64-7.58s-2.51-5.85-6.35-5.85-6.69,1.56-9.14,3.51l-2.29-3.79c2.51-2.45,6.58-4.63,11.93-4.63,6.8,0,11.42,3.68,11.42,10.03,0,4.96-2.79,8.69-7.41,10.03,5.07.78,8.92,3.46,8.92,9.64Z"/>
    <path class="cls-1" d="m45.85,91.7C20.57,91.7,0,71.13,0,45.85S20.57,0,45.85,0s45.85,20.57,45.85,45.85-20.57,45.85-45.85,45.85Zm0-87.7C22.77,4,4,22.77,4,45.85s18.77,41.85,41.85,41.85,41.85-18.77,41.85-41.85S68.93,4,45.85,4Z"/>
  </g>
</svg>